<svg width="55" height="55" viewBox="0 0 55 55" fill="none" xmlns="http://www.w3.org/2000/svg">
<rect width="55" height="55" rx="27.5" fill="black"/>
<path d="M27.5044 13.9742C31.9133 13.9742 32.4308 13.9938 34.1734 14.0725C35.785 14.1445 36.6563 14.4131 37.2393 14.6424C38.0123 14.9438 38.5626 15.2975 39.1391 15.874C39.7156 16.4505 40.0759 17.0008 40.3707 17.7738C40.5935 18.3569 40.8686 19.2282 40.9407 20.8397C41.0193 22.5823 41.0389 23.0999 41.0389 27.5087C41.0389 31.9176 41.0193 32.4351 40.9407 34.1777C40.8686 35.7893 40.6 36.6606 40.3707 37.2436C40.0694 38.0167 39.7156 38.567 39.1391 39.1435C38.5626 39.72 38.0123 40.0803 37.2393 40.3751C36.6563 40.5978 35.785 40.8729 34.1734 40.945C32.4308 41.0236 31.9133 41.0433 27.5044 41.0433C23.0955 41.0433 22.578 41.0236 20.8354 40.945C19.2238 40.8729 18.3525 40.6044 17.7695 40.3751C16.9964 40.0737 16.4462 39.72 15.8697 39.1435C15.2932 38.567 14.9329 38.0167 14.6381 37.2436C14.4153 36.6606 14.1402 35.7893 14.0681 34.1777C13.9895 32.4351 13.9698 31.9176 13.9698 27.5087C13.9698 23.0999 13.9895 22.5823 14.0681 20.8397C14.1402 19.2282 14.4088 18.3569 14.6381 17.7738C14.9394 17.0008 15.2932 16.4505 15.8697 15.874C16.4462 15.2975 16.9964 14.9372 17.7695 14.6424C18.3525 14.4197 19.2238 14.1445 20.8354 14.0725C22.578 13.9873 23.1021 13.9742 27.5044 13.9742ZM27.5044 11C23.0234 11 22.4601 11.0197 20.6978 11.0983C18.9421 11.1769 17.7433 11.4586 16.6951 11.8647C15.6076 12.284 14.6905 12.854 13.7733 13.7711C12.8562 14.6883 12.2928 15.612 11.8669 16.6929C11.4608 17.7411 11.1791 18.9399 11.1005 20.7022C11.0219 22.4578 11.0022 23.0212 11.0022 27.5022C11.0022 31.9831 11.0219 32.5465 11.1005 34.3088C11.1791 36.0644 11.4608 37.2633 11.8669 38.318C12.2862 39.4055 12.8562 40.3227 13.7733 41.2398C14.6905 42.157 15.6142 42.7204 16.6951 43.1462C17.7433 43.5523 18.9421 43.834 20.7044 43.9126C22.4666 43.9913 23.0234 44.0109 27.5109 44.0109C31.9984 44.0109 32.5553 43.9913 34.3175 43.9126C36.0732 43.834 37.2721 43.5523 38.3268 43.1462C39.4143 42.7269 40.3314 42.157 41.2486 41.2398C42.1657 40.3227 42.7291 39.399 43.1549 38.318C43.5611 37.2698 43.8428 36.071 43.9214 34.3088C44 32.5465 44.0197 31.9897 44.0197 27.5022C44.0197 23.0147 44 22.4578 43.9214 20.6956C43.8428 18.9399 43.5611 17.7411 43.1549 16.6863C42.7357 15.5989 42.1657 14.6817 41.2486 13.7646C40.3314 12.8474 39.4077 12.284 38.3268 11.8582C37.2786 11.452 36.0798 11.1703 34.3175 11.0917C32.5487 11.0197 31.9853 11 27.5044 11Z" fill="white"/>
<path d="M27.5043 19.0316C22.8269 19.0316 19.0272 22.8247 19.0272 27.5087C19.0272 32.1927 22.8203 35.9858 27.5043 35.9858C32.1884 35.9858 35.9814 32.1927 35.9814 27.5087C35.9814 22.8247 32.1884 19.0316 27.5043 19.0316ZM27.5043 33.0051C24.4646 33.0051 22.0014 30.5419 22.0014 27.5022C22.0014 24.4625 24.4646 21.9993 27.5043 21.9993C30.544 21.9993 33.0072 24.4625 33.0072 27.5022C33.0072 30.5419 30.544 33.0051 27.5043 33.0051Z" fill="white"/>
<path d="M36.3156 20.6694C37.4082 20.6694 38.294 19.7836 38.294 18.691C38.294 17.5983 37.4082 16.7125 36.3156 16.7125C35.2229 16.7125 34.3372 17.5983 34.3372 18.691C34.3372 19.7836 35.2229 20.6694 36.3156 20.6694Z" fill="white"/>
</svg>
