<?xml version="1.0" encoding="UTF-8" standalone="no"?><!DOCTYPE svg PUBLIC "-//W3C//DTD SVG 1.1//EN" "http://www.w3.org/Graphics/SVG/1.1/DTD/svg11.dtd"><svg width="100%" height="100%" viewBox="0 0 60 60" version="1.1" xmlns="http://www.w3.org/2000/svg" xmlns:xlink="http://www.w3.org/1999/xlink" xml:space="preserve" xmlns:serif="http://www.serif.com/" style="fill-rule:evenodd;clip-rule:evenodd;stroke-linecap:round;stroke-linejoin:round;stroke-miterlimit:1.5;"><g><g><path d="M31.504,15.491c-0,-0 -2.734,-5.179 -0,-9.998c2.733,-4.82 7.984,-4.316 14.026,-3.597c6.042,0.719 9.423,2.23 12.516,1.007c3.093,-1.223 0.257,3.995 -1.746,5.704c-2.003,1.709 -7.097,8.505 -12.42,11.598c-5.323,3.093 -11.23,-2.02 -12.376,-4.714Z" style="fill:none;stroke:#000;stroke-width:1px;"/><path d="M22.161,31.725c-0,0 3.371,-18.008 23.812,-24.374" style="fill:none;stroke:#000;stroke-width:1px;"/></g><g><clipPath id="_clip1"><path d="M1.101,-2.298l-9.65,19.292l32.138,16.075l9.65,-19.292l-32.138,-16.075Z"/></clipPath><g clip-path="url(#_clip1)"><path d="M20.338,24.224c-0,0 4.761,-3.409 4.473,-8.942c-0.289,-5.533 -5.21,-7.431 -10.936,-9.491c-5.726,-2.059 -9.425,-2.221 -11.644,-4.698c-2.219,-2.477 -2.018,3.457 -0.99,5.882c1.027,2.424 2.542,10.782 5.919,15.929c3.377,5.148 10.947,3.217 13.178,1.32Z" style="fill:none;stroke:#000;stroke-width:1px;"/><path d="M20.871,42.806c0,-0 5.041,-17.614 -10.393,-32.453" style="fill:none;stroke:#000;stroke-width:1px;"/></g></g><g><clipPath id="_clip2"><rect x="22.577" y="30.581" width="17.585" height="28.001"/></clipPath><g clip-path="url(#_clip2)"><path d="M9.559,40.92l2.911,17.529l20.506,0.133l3.043,-17.596l3.085,-0.17l-0.024,-8.003l-2.743,-0.779l-13.922,-0.289" style="fill:none;stroke:#000;stroke-width:1px;"/></g><clipPath id="_clip3"><rect x="4.998" y="30.581" width="17.585" height="28.001"/></clipPath><g clip-path="url(#_clip3)"><path d="M35.602,40.92l-2.911,17.529l-20.506,0.133l-3.043,-17.596l-3.086,-0.17l0.025,-8.003l2.743,-0.779l13.922,-0.289" style="fill:none;stroke:#000;stroke-width:1px;"/></g><path d="M8.499,40.898l27.98,0.036" style="fill:none;stroke:#000;stroke-width:1px;"/></g></g></svg>