<?xml version="1.0" encoding="UTF-8" standalone="no"?><!DOCTYPE svg PUBLIC "-//W3C//DTD SVG 1.1//EN" "http://www.w3.org/Graphics/SVG/1.1/DTD/svg11.dtd"><svg width="100%" height="100%" viewBox="0 0 665 278" version="1.1" xmlns="http://www.w3.org/2000/svg" xmlns:xlink="http://www.w3.org/1999/xlink" xml:space="preserve" xmlns:serif="http://www.serif.com/" style="fill-rule:evenodd;clip-rule:evenodd;stroke-linejoin:round;stroke-miterlimit:2;"><g><g><path d="M217.361,218.159l-5.554,39.437c-30.644,17.781 -69.745,14.42 -111.306,4.909c-38.116,-11.735 -58.924,-28.281 -66.805,-47.451l9.04,-41.75c-8.967,-15.884 -41.724,-75.741 -42.476,-103.809c-0.872,-32.527 -0.872,-48.5 22.362,-60.408c23.234,-11.907 43.273,-9.874 56.052,-6.389c10.16,2.771 24.727,17.109 30.561,25.058c1.805,0.169 3.661,0.365 5.568,0.587c31.837,4.079 62.615,9.536 89.63,17.676c32.789,9.638 43.383,20.056 32.777,31.217l-12.684,90.055c-8.503,3.401 -16.152,8.508 -20.843,19.533c-4.064,9.149 -5.699,17.516 -1.846,24.229c4.078,7.278 10.026,7.336 15.524,7.106Zm6.692,-47.509l-0.052,0.369l85.18,-45.883c2.207,-0.81 3.664,-3.34 6.521,-10.002c0.231,14.479 5.643,25.301 14.157,33.933c-4.448,-1.795 -11.18,-0.801 -14.848,-0.094l-97.166,65.753l-0.129,0.918c-8.954,-0.261 -12.025,-2.599 -13.334,-6.016c-2.036,-5.31 -1.985,-11.511 0.063,-17.056c2.617,-6.508 4.932,-10.941 8.869,-14.77c3.985,-3.875 7.344,-5.326 10.739,-7.152Zm-139.09,-143.207c-2.822,-4.665 -10.323,-15.045 -21.972,-16.613c-15.102,-2.033 -35.141,-4.066 -45.306,9.003c-10.165,13.069 -9.293,29.623 -1.742,47.629c6.173,14.722 21.471,52.158 34.466,70.404l19.433,-89.754c-5.874,-12.533 0.052,-18.965 15.121,-20.669Zm-5.739,10.994c-4.123,6.756 11.665,13.193 28.6,17.804c25.455,8.388 51.713,13.361 78.437,16.356c22.891,2.4 39.56,3.478 42.428,-2.929c-1.389,-6.989 -9.435,-12.264 -22.726,-15.472c-19.54,-6.158 -40.587,-11.504 -64.251,-15.442c-22.203,-4.343 -50.855,-5.948 -62.488,-0.317Zm244.565,96.161c-0,0 -14.572,-47.731 19.33,-53.53c33.903,-5.799 39.405,25.427 39.999,29.144c0.595,3.718 3.569,31.672 -9.367,41.189c-12.937,9.516 -34.795,15.91 -49.962,-16.803Zm32.883,8.515c-1.02,0.827 -1.029,2.508 -0.02,3.752c1.009,1.245 2.656,1.584 3.676,0.757c1.02,-0.828 1.029,-2.509 0.02,-3.753c-1.009,-1.245 -2.656,-1.583 -3.676,-0.756Zm11.896,-6.281c-1.02,0.827 -1.029,2.508 -0.02,3.753c1.009,1.244 2.656,1.583 3.676,0.756c1.02,-0.827 1.029,-2.509 0.02,-3.753c-1.009,-1.245 -2.656,-1.583 -3.676,-0.756Zm-11.896,-8.851c-1.02,0.827 -1.029,2.509 -0.02,3.753c1.009,1.244 2.656,1.583 3.676,0.756c1.02,-0.827 1.029,-2.508 0.02,-3.753c-1.009,-1.244 -2.656,-1.583 -3.676,-0.756Zm-25.409,-18.462c-1.02,0.827 -1.029,2.509 -0.02,3.753c1.009,1.244 2.656,1.583 3.676,0.756c1.02,-0.827 1.029,-2.509 0.02,-3.753c-1.009,-1.244 -2.656,-1.583 -3.676,-0.756Zm4.473,-15.797c-1.02,0.827 -1.029,2.508 -0.02,3.753c1.009,1.244 2.656,1.583 3.676,0.756c1.02,-0.827 1.029,-2.509 0.02,-3.753c-1.009,-1.245 -2.656,-1.583 -3.676,-0.756Zm7.898,24.552c-1.019,0.827 -1.028,2.509 -0.019,3.753c1.009,1.245 2.656,1.583 3.676,0.756c1.02,-0.827 1.028,-2.508 0.02,-3.753c-1.009,-1.244 -2.657,-1.583 -3.677,-0.756Zm30.358,-9.992c-1.02,0.827 -1.029,2.509 -0.02,3.753c1.009,1.244 2.657,1.583 3.676,0.756c1.02,-0.827 1.029,-2.509 0.02,-3.753c-1.009,-1.244 -2.656,-1.583 -3.676,-0.756Zm-3.59,11.98c-1.128,0.619 -1.428,2.243 -0.67,3.625c0.758,1.381 2.289,2 3.417,1.381c1.128,-0.619 1.429,-2.243 0.671,-3.624c-0.758,-1.382 -2.289,-2.001 -3.418,-1.382Zm-9.992,-9.611c-1.128,0.619 -1.429,2.243 -0.671,3.624c0.758,1.382 2.29,2.001 3.418,1.382c1.128,-0.619 1.428,-2.244 0.67,-3.625c-0.757,-1.381 -2.289,-2 -3.417,-1.381Zm-30.67,13.809c-1.02,0.827 -1.028,2.509 -0.02,3.753c1.009,1.244 2.657,1.583 3.677,0.756c1.019,-0.827 1.028,-2.509 0.019,-3.753c-1.009,-1.244 -2.656,-1.583 -3.676,-0.756Zm32.642,-25.79c-1.02,0.827 -1.029,2.509 -0.02,3.753c1.009,1.245 2.656,1.583 3.676,0.756c1.02,-0.827 1.029,-2.508 0.02,-3.753c-1.009,-1.244 -2.656,-1.583 -3.676,-0.756Zm-14.248,4.938c-1.128,0.619 -1.429,2.243 -0.671,3.625c0.758,1.381 2.289,2 3.417,1.381c1.129,-0.619 1.429,-2.243 0.671,-3.624c-0.758,-1.382 -2.289,-2.001 -3.417,-1.382Zm-4.404,31.415c-1.02,0.828 -1.029,2.509 -0.02,3.753c1.009,1.245 2.656,1.583 3.676,0.756c1.02,-0.827 1.029,-2.508 0.02,-3.752c-1.009,-1.245 -2.656,-1.584 -3.676,-0.757Zm6.09,-46.535c-1.02,0.827 -1.029,2.508 -0.02,3.753c1.009,1.244 2.657,1.583 3.676,0.756c1.02,-0.827 1.029,-2.509 0.02,-3.753c-1.009,-1.245 -2.656,-1.583 -3.676,-0.756Z" style="fill:#159625;"/><g><g id="vrch"><path d="M374.994,162.947c0.105,2.748 1.281,5.731 4.672,9.202c2.467,2.021 4.306,2.364 5.344,0.893c0.484,-1.812 -0.219,-4.477 -3.694,-8.063c-3.328,-3.434 -6.548,-5.477 -6.322,-2.032" style="fill:#00a9ff;"/><path d="M388.502,188.111c-0.269,2.736 0.491,5.851 3.381,9.75c2.17,2.337 3.945,2.926 5.174,1.61c0.724,-1.73 0.39,-4.466 -2.567,-8.49c-2.831,-3.853 -5.744,-6.314 -5.988,-2.87" style="fill:#00a9ff;"/><path d="M412.959,192.679c-0.268,2.736 0.492,5.851 3.381,9.75c2.17,2.337 3.945,2.926 5.174,1.61c0.725,-1.73 0.39,-4.466 -2.567,-8.49c-2.831,-3.853 -5.744,-6.314 -5.988,-2.87" style="fill:#00a9ff;"/><path d="M430.327,178.488c-0.534,2.697 -0.081,5.871 2.414,10.034c1.931,2.538 3.641,3.297 4.992,2.107c0.89,-1.651 0.824,-4.406 -1.726,-8.7c-2.442,-4.111 -5.101,-6.844 -5.68,-3.441" style="fill:#00a9ff;"/><path d="M393.623,164.205c-0.103,2.747 0.843,5.811 3.962,9.529c2.307,2.203 4.114,2.683 5.261,1.295c0.62,-1.77 0.121,-4.48 -3.073,-8.319c-3.058,-3.676 -6.114,-5.957 -6.15,-2.505" style="fill:#00a9ff;"/><path d="M414.172,165.827c-0.403,2.719 0.201,5.868 2.893,9.906c2.051,2.442 3.795,3.118 5.087,1.865c0.81,-1.692 0.612,-4.441 -2.141,-8.607c-2.637,-3.989 -5.424,-6.591 -5.839,-3.164" style="fill:#00a9ff;"/><path d="M401.515,147.746c-0.403,2.719 0.201,5.868 2.893,9.906c2.051,2.442 3.795,3.118 5.088,1.864c0.809,-1.691 0.611,-4.44 -2.142,-8.606c-2.637,-3.99 -5.424,-6.592 -5.839,-3.164" style="fill:#00a9ff;"/><path d="M382.197,149.839c-0.404,2.72 0.2,5.869 2.892,9.906c2.052,2.443 3.796,3.119 5.088,1.865c0.81,-1.692 0.612,-4.44 -2.142,-8.607c-2.636,-3.989 -5.423,-6.591 -5.838,-3.164" style="fill:#00a9ff;"/></g></g></g><g><g><g transform="matrix(83.3333,0,0,83.3333,648.509,275.551)"></g><text x="129.592px" y="275.551px" style="font-family:'PTSans-BoldItalic', 'PT Sans', sans-serif;font-weight:700;font-style:italic;font-size:83.333px;fill:#fff;">Z<tspan x="170.759px " y="275.551px ">A</tspan>HR<tspan x="316.925px " y="275.551px ">A</tspan>DNIC<tspan x="534.092px 577.092px " y="275.551px 275.551px ">TV</tspan>Í</text><g transform="matrix(83.3333,0,0,83.3333,647.509,274.551)"></g><text x="128.592px" y="274.551px" style="font-family:'PTSans-BoldItalic', 'PT Sans', sans-serif;font-weight:700;font-style:italic;font-size:83.333px;fill:#fff;">Z<tspan x="169.759px " y="274.551px ">A</tspan>HR<tspan x="315.925px " y="274.551px ">A</tspan>DNIC<tspan x="533.092px 576.092px " y="274.551px 274.551px ">TV</tspan>Í</text><g transform="matrix(83.3333,0,0,83.3333,646.509,273.551)"></g><text x="127.592px" y="273.551px" style="font-family:'PTSans-BoldItalic', 'PT Sans', sans-serif;font-weight:700;font-style:italic;font-size:83.333px;fill:#fff;">Z<tspan x="168.759px " y="273.551px ">A</tspan>HR<tspan x="314.925px " y="273.551px ">A</tspan>DNIC<tspan x="532.092px 575.092px " y="273.551px 273.551px ">TV</tspan>Í</text></g><path d="M136.931,225.38l2.994,3.004l1.008,-1.386l-3.139,-2.064l-0.863,0.446Z" style="fill:#fff;"/><path d="M180.437,218.219l-3.002,-2.996l-1.005,1.388l3.145,2.056l0.862,-0.448Z" style="fill:#fff;"/><path d="M170.235,266.437l-2.959,-3.04l-1.024,1.374l3.115,2.101l0.868,-0.435Z" style="fill:#fff;"/><path d="M207.809,217.176l0.192,-1.065l-1.316,-0.059l-0.044,0.814l1.168,0.31Z" style="fill:#fff;"/></g><g transform="matrix(83.3333,0,0,83.3333,649.509,276.551)"></g><text x="130.592px" y="276.551px" style="font-family:'PTSans-BoldItalic', 'PT Sans', sans-serif;font-weight:700;font-style:italic;font-size:83.333px;">Z<tspan x="171.759px " y="276.551px ">A</tspan>HR<tspan x="317.925px " y="276.551px ">A</tspan>DNIC<tspan x="535.092px 578.092px " y="276.551px 276.551px ">TV</tspan>Í</text></g></svg>