<svg width="55" height="55" viewBox="0 0 55 55" fill="none" xmlns="http://www.w3.org/2000/svg">
<rect width="55" height="55" rx="27.5" fill="#1D9BF0"/>
<path d="M22.4675 42.0063C34.6637 42.0063 41.3325 31.9 41.3325 23.1413C41.3325 22.8525 41.3325 22.5638 41.3187 22.2888C42.6112 21.3538 43.7387 20.185 44.6325 18.8513C43.45 19.3738 42.1712 19.7313 40.8237 19.8963C42.1987 19.0713 43.2437 17.7788 43.7387 16.225C42.46 16.9813 41.0437 17.5313 39.5312 17.8338C38.3212 16.5413 36.6025 15.7438 34.6912 15.7438C31.0337 15.7438 28.0637 18.7138 28.0637 22.3713C28.0637 22.8938 28.1187 23.4025 28.2425 23.8838C22.7287 23.6088 17.8475 20.9688 14.575 16.9538C14.0112 17.93 13.6812 19.0713 13.6812 20.2813C13.6812 22.5775 14.85 24.6125 16.6375 25.795C15.5512 25.7675 14.5337 25.465 13.64 24.97C13.64 24.9975 13.64 25.025 13.64 25.0525C13.64 28.27 15.9225 30.9375 18.9612 31.5563C18.4112 31.7075 17.82 31.79 17.215 31.79C16.7887 31.79 16.3762 31.7488 15.9637 31.6663C16.8025 34.3063 19.25 36.2175 22.1512 36.2725C19.8825 38.0463 17.0225 39.105 13.915 39.105C13.3787 39.105 12.8562 39.0775 12.3337 39.0088C15.235 40.9063 18.7275 42.0063 22.4675 42.0063Z" fill="white"/>
</svg>
